<svg width="20" height="20" viewBox="0 0 20 20" fill="none" xmlns="http://www.w3.org/2000/svg">
<path fill-rule="evenodd" clip-rule="evenodd" d="M8.40009 15.494H3.14926C2.80426 15.494 2.52426 15.214 2.52426 14.869C2.52426 14.524 2.80426 14.244 3.14926 14.244H8.40009C8.7451 14.244 9.02509 14.524 9.02509 14.869C9.02509 15.214 8.7451 15.494 8.40009 15.494Z" fill="#84818A"/>
<path fill-rule="evenodd" clip-rule="evenodd" d="M15.9924 7.41699H10.7424C10.3974 7.41699 10.1174 7.13699 10.1174 6.79199C10.1174 6.44699 10.3974 6.16699 10.7424 6.16699H15.9924C16.3374 6.16699 16.6174 6.44699 16.6174 6.79199C16.6174 7.13699 16.3374 7.41699 15.9924 7.41699Z" fill="#84818A"/>
<mask id="mask0_6_416" style="mask-type:luminance" maskUnits="userSpaceOnUse" x="2" y="4" width="6" height="6">
<path fill-rule="evenodd" clip-rule="evenodd" d="M2.5 4.16699H7.68817V9.32666H2.5V4.16699Z" fill="white"/>
</mask>
<g mask="url(#mask0_6_416)">
<path fill-rule="evenodd" clip-rule="evenodd" d="M5.09401 5.41669C4.35318 5.41669 3.74985 6.01335 3.74985 6.74752C3.74985 7.48085 4.35318 8.07669 5.09401 8.07669C5.83568 8.07669 6.43818 7.48085 6.43818 6.74752C6.43818 6.01335 5.83568 5.41669 5.09401 5.41669ZM5.09401 9.32669C3.66401 9.32669 2.49985 8.17002 2.49985 6.74752C2.49985 5.32502 3.66401 4.16669 5.09401 4.16669C6.52485 4.16669 7.68818 5.32502 7.68818 6.74752C7.68818 8.17002 6.52485 9.32669 5.09401 9.32669Z" fill="#84818A"/>
</g>
<path fill-rule="evenodd" clip-rule="evenodd" d="M14.4897 13.5067C13.7481 13.5067 13.1447 14.1033 13.1447 14.8367C13.1447 15.5708 13.7481 16.1667 14.4897 16.1667C15.2306 16.1667 15.8331 15.5708 15.8331 14.8367C15.8331 14.1033 15.2306 13.5067 14.4897 13.5067ZM14.4897 17.4167C13.0589 17.4167 11.8947 16.2592 11.8947 14.8367C11.8947 13.4142 13.0589 12.2567 14.4897 12.2567C15.9197 12.2567 17.0831 13.4142 17.0831 14.8367C17.0831 16.2592 15.9197 17.4167 14.4897 17.4167Z" fill="#84818A"/>
</svg>
